<?xml version="1.0" encoding="utf-8"?>
<!-- Generator: Adobe Illustrator 23.0.3, SVG Export Plug-In . SVG Version: 6.00 Build 0)  -->
<svg version="1.1" xmlns="http://www.w3.org/2000/svg" xmlns:xlink="http://www.w3.org/1999/xlink" x="0px" y="0px"
	 viewBox="0 0 800 800" style="enable-background:new 0 0 800 800;" xml:space="preserve">
<style type="text/css">
	.st0{display:none;}
	.st1{display:inline;}
	.st2{fill:#C7312E;}
	.st3{fill:#9B9B9B;}
	.st4{fill:#D1C5BF;}
	.st5{fill:#F2E8E2;}
</style>
<g id="Layer_2" class="st0">
	<g class="st1">
		<rect x="-51.5" y="-26.5" class="st2" width="876" height="843"/>
		<path d="M824-26v842H-51V-26H824 M825-27H-52v844h877V-27L825-27z"/>
	</g>
</g>
<g id="Layer_3">
	<g>
		<path class="st3" d="M330,578.2c-1.5,3.4-3.8,6.3-6.8,8.5c-16.7,12.3-35.8,6.4-44.1-7.1c-4.4-7.1-12.4-11.3-20.7-10.4l-133.9,14.4
			c-9.3,1-17,7.7-19,16.8c0,0.1-0.1,0.2-0.1,0.3c-1.1,4.7-3.7,8.9-7.4,11.9c-21.4,17-47.2,3.4-49.5-18.4c-0.5-5.1,0.3-10,2.1-14.5
			c3.2-7.4,2.1-16.1-3-22.4c-6.6-8.1-8.9-19.8-3.5-32.3c1.5-3.5,3.9-6.4,7-8.7c13.2-9.6,27.8-7.9,37.5,0c13.5,11,11.2,21.9,28.5,20
			l140-15c0-0.3,10.8-5.8,10.7-6c-2.3-21.3,19.1-39.8,43.1-29.1c3.3,1.5,6.2,3.8,8.3,6.8c7.5,10.2,8.2,21.3,4.5,30.3
			c-3.1,7.6-2.3,16.3,2.9,22.7C333.1,554,335.5,565.8,330,578.2z"/>
		<path class="st3" d="M342.6,476.8c-2.4,2.4-5.4,4.1-8.7,4.9c-18.5,4.7-32.7-6.8-35.1-21.2c-1.3-7.6-6.7-13.9-14.1-16l-119-33.8
			c-8.2-2.3-17.1,0.7-22,7.7c-0.1,0.1-0.1,0.2-0.2,0.3c-2.5,3.6-6.2,6.3-10.4,7.6c-24.1,7.1-41.3-13.3-35.8-32.7
			c1.3-4.5,3.7-8.5,6.8-11.6c5.3-5.3,7.3-13,5.1-20.1c-2.8-9.1-0.8-19.9,8.1-28.7c2.5-2.4,5.6-4.1,8.9-5
			c14.6-3.6,26.4,2.9,31.9,12.9c7.7,14,2,22.5,17.4,26.8L300,403.3c0.1-0.2,11.2-1.2,11.2-1.4c5.4-19,30-27.3,46.7-10
			c2.3,2.4,4,5.4,4.8,8.6c2.8,11.3-0.4,21-6.6,27.4c-5.3,5.4-7.5,13.1-5.3,20.3C353.5,457.3,351.5,468.1,342.6,476.8z"/>
		<path class="st3" d="M296.9,377.9c-2.4,1-5,1.5-7.6,1.2c-14.7-1.7-21.8-13.9-19.6-25c1.1-5.9-1-11.9-5.8-15.5L187,281.3
			c-5.3-4-12.6-4.2-18-0.5c-0.1,0-0.1,0.1-0.2,0.1c-2.8,1.9-6.2,2.9-9.6,2.6c-19.4-1.5-26.3-21-17-33.5c2.2-2.9,5-5.1,8.1-6.5
			c5.2-2.4,8.9-7.4,9.3-13.2c0.5-7.4,4.9-14.7,13.8-18.5c2.5-1.1,5.2-1.5,7.8-1.1c11.5,1.4,18.3,9.4,19.6,18.1
			c1.7,12.3-4.7,16.8,5.2,24.2l80.3,59.8c0.1-0.2,8.4,2.2,8.5,2c9.1-12.3,29.2-11.5,36.6,5.6c1,2.4,1.4,5,1.1,7.6
			c-1,9-6,15.1-12.3,18c-5.3,2.4-9.1,7.4-9.5,13.3C310.2,366.7,305.8,374,296.9,377.9z"/>
		<path class="st3" d="M282.4,286.8c-1.9-0.3-3.7-1-5.2-2.2c-8.5-6.7-8.3-17.1-2.6-23.2c3-3.2,4-7.8,2.3-11.9L250.8,184
			c-1.8-4.5-6.3-7.5-11.1-7.2c-0.1,0-0.1,0-0.2,0c-2.5,0.1-5-0.6-7-2.1c-11.6-8.4-8.3-23.3,2.3-27.5c2.5-1,5.1-1.3,7.6-1
			c4.2,0.5,8.4-1.2,10.9-4.7c3.1-4.4,8.7-7.3,15.8-6.3c2,0.3,3.8,1.1,5.3,2.3c6.7,5.3,7.9,12.9,5.3,18.9c-3.6,8.4-9.4,8.7-6.1,17.2
			l27.2,68.4c0.1-0.1,4.4,4.6,4.5,4.6c10.4-4.2,22.7,4,20.7,17.6c-0.3,1.9-1.1,3.7-2.2,5.2c-4.1,5.2-9.6,7.1-14.6,6.5
			c-4.3-0.5-8.5,1.2-11,4.7C295,284.9,289.4,287.8,282.4,286.8z"/>
		<path class="st3" d="M319.9,220.9c-1.2-0.9-2.1-2-2.7-3.3c-3.2-7.5,0.7-14.2,6.6-16.3c3.1-1.1,5.4-3.8,5.8-7l6.1-52.5
			c0.4-3.6-1.5-7.2-4.8-8.7c0,0-0.1,0-0.1-0.1c-1.7-0.8-3.1-2.2-3.9-3.9c-4.6-9.7,2.8-18.3,11.3-17.3c2,0.2,3.8,1,5.3,2.1
			c2.6,1.9,6,2.2,8.8,0.8c3.7-1.8,8.4-1.7,12.6,1.5c1.2,0.9,2.1,2.1,2.7,3.4c2.5,5.9,0.6,11.3-3.3,14.3c-5.4,4.2-9.3,2.4-10.1,9.2
			l-6.4,54.8c0.1,0,1.3,4.6,1.4,4.6c8.4,1,13.6,10.8,7.4,19c-0.9,1.1-2,2-3.3,2.6c-4.6,2-8.9,1.3-12-0.9c-2.6-1.9-6.1-2.3-8.9-0.9
			C328.9,224.1,324.2,224,319.9,220.9z"/>
		<path class="st3" d="M576.9,183c0.2,1.1,0,2.3-0.4,3.4c-2.4,6.1-8.5,7.7-13,5.5c-2.4-1.2-5.2-0.9-7.3,0.7L522.9,219
			c-2.3,1.8-3.2,4.9-2.3,7.7c0,0,0,0.1,0,0.1c0.5,1.4,0.5,3,0,4.4c-2.9,8.1-12,8.9-16.3,3.4c-1-1.3-1.6-2.7-1.9-4.2
			c-0.4-2.5-2.2-4.7-4.6-5.5c-3.1-1.1-5.7-3.8-6.4-8c-0.2-1.2,0-2.4,0.4-3.5c1.9-4.8,6.1-6.8,10-6.3c5.5,0.7,6.7,4,11,0.5l34.9-27.6
			c-0.1-0.1,1.9-3.4,1.9-3.4c-4.2-5.3-1.6-13.9,6.6-15c1.1-0.2,2.3,0,3.4,0.4c3.7,1.5,5.8,4.3,6.3,7.4c0.4,2.6,2.1,4.7,4.6,5.6
			C573.7,176,576.3,178.7,576.9,183z"/>
		<path class="st3" d="M494.6,636.8c-0.5,4.5-2.2,8.8-4.9,12.5c-15.3,20.6-39.9,20.5-54.7,7.5c-7.8-6.9-18.7-8.9-28.3-4.8
			l-153.1,65.4c-10.6,4.5-17.3,15.2-16.5,26.7c0,0.1,0,0.3,0,0.4c0.4,5.9-1.1,11.9-4.5,16.7c-19.2,27.8-54.5,21.1-65.2-3.8
			c-2.5-5.8-3.3-12-2.7-17.9c1-9.9-3.4-19.8-11.7-25.4c-10.7-7.2-17.7-20.2-15.8-36.9c0.5-4.6,2.3-9,5.1-12.8
			c12.2-16.1,30.1-19.4,44.3-13.6c20,8.1,21.1,21.8,41,13.3l160-68.3c-0.1-0.3,10.6-10.7,10.5-11c-10.4-24.4,8.2-53.9,40.4-50
			c4.5,0.5,8.7,2.3,12.3,5c12.5,9.4,17.4,22.3,16.2,34.2c-1,10.1,3.2,20.1,11.6,25.8C489.5,607.1,496.6,620.1,494.6,636.8z"/>
	</g>
	<path class="st4" d="M582.3,416.6c-1.1,0.3-2.3,0.4-3.4,0.1c-6.4-1.5-8.9-7.2-7.4-12c0.8-2.5,0.2-5.3-1.8-7.1l-31-29.1
		c-2.1-2-5.3-2.5-7.9-1.1c0,0-0.1,0-0.1,0.1c-1.3,0.7-2.9,1-4.4,0.7c-8.5-1.6-10.5-10.6-5.8-15.6c1.1-1.2,2.5-2,3.9-2.5
		c2.4-0.8,4.3-2.8,4.7-5.3c0.6-3.2,2.9-6.2,7-7.5c1.1-0.3,2.4-0.4,3.5-0.1c5,1.2,7.6,5,7.7,9c0.2,5.5-2.9,7.2,1.1,11l32.4,30.4
		c0.1-0.1,3.6,1.4,3.7,1.3c4.6-4.9,13.5-3.6,15.8,4.3c0.3,1.1,0.4,2.3,0.1,3.4c-0.9,3.9-3.4,6.4-6.3,7.3c-2.5,0.8-4.4,2.8-4.8,5.4
		C588.8,412.4,586.4,415.4,582.3,416.6z"/>
</g>
<g id="Layer_1">
	<g>
		<path class="st5" d="M330,572.2c-1.5,3.4-3.8,6.3-6.8,8.5c-16.7,12.3-35.8,6.4-44.1-7.1c-4.4-7.1-12.4-11.3-20.7-10.4l-133.9,14.4
			c-9.3,1-17,7.7-19,16.8c0,0.1-0.1,0.2-0.1,0.3c-1.1,4.7-3.7,8.9-7.4,11.9c-21.4,17-47.2,3.4-49.5-18.4c-0.5-5.1,0.3-10,2.1-14.5
			c3.2-7.4,2.1-16.1-3-22.4c-6.6-8.1-8.9-19.8-3.5-32.3c1.5-3.5,3.9-6.4,7-8.7c13.2-9.6,27.8-7.9,37.5,0c13.5,11,11.2,21.9,28.5,20
			l140-15c0-0.3,10.8-5.8,10.7-6c-2.3-21.3,19.1-39.8,43.1-29.1c3.3,1.5,6.2,3.8,8.3,6.8c7.5,10.2,8.2,21.3,4.5,30.3
			c-3.1,7.6-2.3,16.3,2.9,22.7C333.1,548,335.5,559.8,330,572.2z"/>
		<path class="st5" d="M342.6,470.8c-2.4,2.4-5.4,4.1-8.7,4.9c-18.5,4.7-32.7-6.8-35.1-21.2c-1.3-7.6-6.7-13.9-14.1-16l-119-33.8
			c-8.2-2.3-17.1,0.7-22,7.7c-0.1,0.1-0.1,0.2-0.2,0.3c-2.5,3.6-6.2,6.3-10.4,7.6c-24.1,7.1-41.3-13.3-35.8-32.7
			c1.3-4.5,3.7-8.5,6.8-11.6c5.3-5.3,7.3-13,5.1-20.1c-2.8-9.1-0.8-19.9,8.1-28.7c2.5-2.4,5.6-4.1,8.9-5
			c14.6-3.6,26.4,2.9,31.9,12.9c7.7,14,2,22.5,17.4,26.8L300,397.3c0.1-0.2,11.2-1.2,11.2-1.4c5.4-19,30-27.3,46.7-10
			c2.3,2.4,4,5.4,4.8,8.6c2.8,11.3-0.4,21-6.6,27.4c-5.3,5.4-7.5,13.1-5.3,20.3C353.5,451.3,351.5,462.1,342.6,470.8z"/>
		<path class="st5" d="M296.9,371.9c-2.4,1-5,1.5-7.6,1.2c-14.7-1.7-21.8-13.9-19.6-25c1.1-5.9-1-11.9-5.8-15.5L187,275.3
			c-5.3-4-12.6-4.2-18-0.5c-0.1,0-0.1,0.1-0.2,0.1c-2.8,1.9-6.2,2.9-9.6,2.6c-19.4-1.5-26.3-21-17-33.5c2.2-2.9,5-5.1,8.1-6.5
			c5.2-2.4,8.9-7.4,9.3-13.2c0.5-7.4,4.9-14.7,13.8-18.5c2.5-1.1,5.2-1.5,7.8-1.1c11.5,1.4,18.3,9.4,19.6,18.1
			c1.7,12.3-4.7,16.8,5.2,24.2l80.3,59.8c0.1-0.2,8.4,2.2,8.5,2c9.1-12.3,29.2-11.5,36.6,5.6c1,2.4,1.4,5,1.1,7.6
			c-1,9-6,15.1-12.3,18c-5.3,2.4-9.1,7.4-9.5,13.3C310.2,360.7,305.8,368,296.9,371.9z"/>
		<path class="st5" d="M282.4,280.8c-1.9-0.3-3.7-1-5.2-2.2c-8.5-6.7-8.3-17.1-2.6-23.2c3-3.2,4-7.8,2.3-11.9L250.8,178
			c-1.8-4.5-6.3-7.5-11.1-7.2c-0.1,0-0.1,0-0.2,0c-2.5,0.1-5-0.6-7-2.1c-11.6-8.4-8.3-23.3,2.3-27.5c2.5-1,5.1-1.3,7.6-1
			c4.2,0.5,8.4-1.2,10.9-4.7c3.1-4.4,8.7-7.3,15.8-6.3c2,0.3,3.8,1.1,5.3,2.3c6.7,5.3,7.9,12.9,5.3,18.9c-3.6,8.4-9.4,8.7-6.1,17.2
			l27.2,68.4c0.1-0.1,4.4,4.6,4.5,4.6c10.4-4.2,22.7,4,20.7,17.6c-0.3,1.9-1.1,3.7-2.2,5.2c-4.1,5.2-9.6,7.1-14.6,6.5
			c-4.3-0.5-8.5,1.2-11,4.7C295,278.9,289.4,281.8,282.4,280.8z"/>
		<path class="st5" d="M319.9,214.9c-1.2-0.9-2.1-2-2.7-3.3c-3.2-7.5,0.7-14.2,6.6-16.3c3.1-1.1,5.4-3.8,5.8-7l6.1-52.5
			c0.4-3.6-1.5-7.2-4.8-8.7c0,0-0.1,0-0.1-0.1c-1.7-0.8-3.1-2.2-3.9-3.9c-4.6-9.7,2.8-18.3,11.3-17.3c2,0.2,3.8,1,5.3,2.1
			c2.6,1.9,6,2.2,8.8,0.8c3.7-1.8,8.4-1.7,12.6,1.5c1.2,0.9,2.1,2.1,2.7,3.4c2.5,5.9,0.6,11.3-3.3,14.3c-5.4,4.2-9.3,2.4-10.1,9.2
			l-6.4,54.8c0.1,0,1.3,4.6,1.4,4.6c8.4,1,13.6,10.8,7.4,19c-0.9,1.1-2,2-3.3,2.6c-4.6,2-8.9,1.3-12-0.9c-2.6-1.9-6.1-2.3-8.9-0.9
			C328.9,218.1,324.2,218,319.9,214.9z"/>
		<path class="st5" d="M576.9,177c0.2,1.1,0,2.3-0.4,3.4c-2.4,6.1-8.5,7.7-13,5.5c-2.4-1.2-5.2-0.9-7.3,0.7L522.9,213
			c-2.3,1.8-3.2,4.9-2.3,7.7c0,0,0,0.1,0,0.1c0.5,1.4,0.5,3,0,4.4c-2.9,8.1-12,8.9-16.3,3.4c-1-1.3-1.6-2.7-1.9-4.2
			c-0.4-2.5-2.2-4.7-4.6-5.5c-3.1-1.1-5.7-3.8-6.4-8c-0.2-1.2,0-2.4,0.4-3.5c1.9-4.8,6.1-6.8,10-6.3c5.5,0.7,6.7,4,11,0.5l34.9-27.6
			c-0.1-0.1,1.9-3.4,1.9-3.4c-4.2-5.3-1.6-13.9,6.6-15c1.1-0.2,2.3,0,3.4,0.4c3.7,1.5,5.8,4.3,6.3,7.4c0.4,2.6,2.1,4.7,4.6,5.6
			C573.7,170,576.3,172.7,576.9,177z"/>
		<path class="st5" d="M494.6,630.8c-0.5,4.5-2.2,8.8-4.9,12.5c-15.3,20.6-39.9,20.5-54.7,7.5c-7.8-6.9-18.7-8.9-28.3-4.8
			l-153.1,65.4c-10.6,4.5-17.3,15.2-16.5,26.7c0,0.1,0,0.3,0,0.4c0.4,5.9-1.1,11.9-4.5,16.7c-19.2,27.8-54.5,21.1-65.2-3.8
			c-2.5-5.8-3.3-12-2.7-17.9c1-9.9-3.4-19.8-11.7-25.4c-10.7-7.2-17.7-20.2-15.8-36.9c0.5-4.6,2.3-9,5.1-12.8
			c12.2-16.1,30.1-19.4,44.3-13.6c20,8.1,21.1,21.8,41,13.3l160-68.3c-0.1-0.3,10.6-10.7,10.5-11c-10.4-24.4,8.2-53.9,40.4-50
			c4.5,0.5,8.7,2.3,12.3,5c12.5,9.4,17.4,22.3,16.2,34.2c-1,10.1,3.2,20.1,11.6,25.8C489.5,601.1,496.6,614.1,494.6,630.8z"/>
		<path class="st5" d="M585.3,412.6c-1.1,0.3-2.3,0.4-3.4,0.1c-6.4-1.5-8.9-7.2-7.4-12c0.8-2.5,0.2-5.3-1.8-7.1l-31-29.1
			c-2.1-2-5.3-2.5-7.9-1.1c0,0-0.1,0-0.1,0.1c-1.3,0.7-2.9,1-4.4,0.7c-8.5-1.6-10.5-10.6-5.8-15.6c1.1-1.2,2.5-2,3.9-2.5
			c2.4-0.8,4.3-2.8,4.7-5.3c0.6-3.2,2.9-6.2,7-7.5c1.1-0.3,2.4-0.4,3.5-0.1c5,1.2,7.6,5,7.7,9c0.2,5.5-2.9,7.2,1.1,11l32.4,30.4
			c0.1-0.1,3.6,1.4,3.7,1.3c4.6-4.9,13.5-3.6,15.8,4.3c0.3,1.1,0.4,2.3,0.1,3.4c-0.9,3.9-3.4,6.4-6.3,7.3c-2.5,0.8-4.4,2.8-4.8,5.4
			C591.8,408.4,589.4,411.4,585.3,412.6z"/>
	</g>
</g>
</svg>
